# xmcd CD database file
#
# Track frame offsets:
#	150
#	20497
#	39866
#	60722
#	78647
#	94668
#	111085
#	129559
#	150584
#	169922
#
# Disc length: 2505 seconds
#
# Revision: 7
# Processed by: cddbd v1.5.2PL0 Copyright (c) Steve Scherf et al.
# Submitted via: CDex 1.50
#
DISCID=7709c70a
DTITLE=Enrique Iglesias - Vivir
DYEAR=1997
DGENRE=Latin
TTITLE0=Enamorado Por Primera Vez
TTITLE1=Al Despertar
TTITLE2=Lluvia Cae
TTITLE3=Tu Vacio
TTITLE4=Solo En Ti (Only You)
TTITLE5=Miente
TTITLE6=Vivire Y Morire
TTITLE7=Volvere
TTITLE8=El Muro
TTITLE9=Revolucion
EXTD=YEAR: 1997
EXTT0=
EXTT1=
EXTT2=
EXTT3=
EXTT4=
EXTT5=
EXTT6=
EXTT7=
EXTT8=
EXTT9=
PLAYORDER=
